<?xml version="1.0" standalone="no"?>
<!DOCTYPE svg PUBLIC "-//W3C//DTD SVG 20010904//EN"
 "http://www.w3.org/TR/2001/REC-SVG-20010904/DTD/svg10.dtd">
<svg version="1.0" xmlns="http://www.w3.org/2000/svg"
 width="700.000000pt" height="700.000000pt" viewBox="0 0 700.000000 700.000000"
 preserveAspectRatio="xMidYMid meet">
<metadata>
Created by potrace 1.11, written by Peter Selinger 2001-2013
</metadata>
<g transform="translate(0.000000,700.000000) scale(0.100000,-0.100000)"
fill="#000000" stroke="none">
<path d="M3278 6995 c-2 -1 -41 -6 -88 -9 -47 -4 -96 -8 -110 -10 -14 -2 -46
-7 -71 -10 -25 -4 -57 -9 -70 -11 -13 -2 -42 -6 -64 -10 -22 -3 -100 -19 -174
-36 -795 -182 -1532 -666 -2015 -1324 -36 -49 -70 -95 -76 -102 -5 -7 -10 -17
-10 -23 0 -5 -3 -10 -8 -10 -4 0 -12 -9 -17 -19 -6 -11 -40 -69 -77 -129 -203
-333 -357 -734 -432 -1127 -26 -137 -35 -194 -42 -260 -2 -22 -7 -76 -11 -120
-15 -157 -8 -594 12 -706 2 -13 7 -44 9 -69 21 -185 75 -419 151 -645 145
-435 384 -846 698 -1202 95 -107 258 -267 347 -339 19 -16 42 -35 50 -43 41
-39 256 -192 368 -262 314 -197 753 -377 1077 -444 11 -2 45 -9 75 -15 88 -18
93 -19 130 -24 32 -4 82 -11 150 -22 164 -25 697 -25 838 0 16 3 70 11 152 22
264 36 643 154 927 289 240 114 495 272 679 420 355 286 656 637 865 1010 25
44 50 89 57 100 118 208 253 578 319 870 8 40 23 115 28 145 4 27 13 79 20
120 2 14 7 52 10 85 4 33 9 71 11 85 9 49 11 526 3 612 -15 162 -26 246 -54
393 -87 468 -314 991 -599 1380 -28 39 -54 75 -58 80 -45 63 -216 255 -312
350 -353 351 -747 605 -1224 790 -76 29 -299 101 -342 110 -8 1 -33 8 -55 13
-22 6 -76 18 -120 27 -108 23 -114 24 -160 30 -22 3 -51 8 -65 10 -14 2 -52 7
-85 10 -33 4 -73 9 -90 11 -34 6 -542 14 -547 9z"/>
</g>
</svg>
